<svg width="100" height="100" viewBox="0 0 100 100" fill="none" xmlns="http://www.w3.org/2000/svg">
  <path d="M100 0H0V100H100V0Z" fill="url(#paint0_linear)" />
  <path fill-rule="evenodd" clip-rule="evenodd" d="M0 0H100V100H0V0ZM10 10V90H90V10H10Z" fill="url(#paint1_linear)" fill-opacity="0.1" />
  <path d="M10 0V100M20 0V100M30 0V100M40 0V100M50 0V100M60 0V100M70 0V100M80 0V100M90 0V100M0 10H100M0 20H100M0 30H100M0 40H100M0 50H100M0 60H100M0 70H100M0 80H100M0 90H100" stroke="white" stroke-opacity="0.1" />
  <defs>
    <linearGradient id="paint0_linear" x1="50" y1="0" x2="50" y2="100" gradientUnits="userSpaceOnUse">
      <stop stop-color="white" stop-opacity="0.05" />
      <stop offset="1" stop-color="white" stop-opacity="0" />
    </linearGradient>
    <linearGradient id="paint1_linear" x1="50" y1="0" x2="50" y2="100" gradientUnits="userSpaceOnUse">
      <stop stop-color="white" />
      <stop offset="1" stop-color="white" stop-opacity="0.1" />
    </linearGradient>
  </defs>
</svg> 